# xmcd CD database file
#
# Track frame offsets:
#	150
#	11632
#	23407
#	53042
#	73547
#	89327
#	102944
#	117804
#	133839
#	145715
#	160483
#	172358
#	187161
#
# Disc length: 2714 seconds
#
# Revision: 0
# Processed by: cddbd v1.5.2PL0 Copyright (c) Steve Scherf et al.
# Submitted via: CDex 1.51
#
DISCID=b40a980d
DTITLE=Atomic Blues Band - Swing Shift Blues
DYEAR=2000
DGENRE=Blues
TTITLE0=Muddy Shuffle
TTITLE1=Chicken Shack Boogie
TTITLE2=Cold Tile Floor
TTITLE3=Swing Shift Blues
TTITLE4=High Heel Sneakers
TTITLE5=Gotta Get Down From Here
TTITLE6=West Helena Woman
TTITLE7=Where's Buster?
TTITLE8=Hey Now
TTITLE9=Leavin' for Memphis
TTITLE10=Run Uncle John
TTITLE11=Waffle House Blues
TTITLE12=Tight Dress
EXTD=YEAR: 2000
EXTT0=
EXTT1=
EXTT2=
EXTT3=
EXTT4=
EXTT5=
EXTT6=
EXTT7=
EXTT8=
EXTT9=
EXTT10=
EXTT11=
EXTT12=
PLAYORDER=
